<svg width="105" height="105" viewBox="0 0 105 105" fill="none" xmlns="http://www.w3.org/2000/svg">
<path d="M104.462 52.8894C104.462 66.6706 98.9876 79.8874 89.2428 89.6322C79.498 99.377 66.2812 104.852 52.5 104.852C38.7188 104.852 25.502 99.377 15.7572 89.6322C6.01241 79.8874 0.537842 66.6706 0.537842 52.8894C0.537842 39.1082 6.01241 25.8914 15.7572 16.1466C25.502 6.40182 38.7188 0.927246 52.5 0.927246C66.2812 0.927246 79.498 6.40182 89.2428 16.1466C98.9876 25.8914 104.462 39.1082 104.462 52.8894ZM52.5 26.9083C51.679 26.9088 50.8673 27.0812 50.117 27.4145C49.3668 27.7478 48.6946 28.2345 48.1439 28.8433C47.5932 29.4522 47.1761 30.1696 46.9196 30.9495C46.663 31.7293 46.5726 32.5542 46.6543 33.3711L48.9276 56.15C49.004 57.0449 49.4134 57.8785 50.075 58.486C50.7365 59.0934 51.6019 59.4305 52.5 59.4305C53.3981 59.4305 54.2635 59.0934 54.925 58.486C55.5866 57.8785 55.996 57.0449 56.0724 56.15L58.3457 33.3711C58.4274 32.5542 58.337 31.7293 58.0804 30.9495C57.8239 30.1696 57.4068 29.4522 56.8561 28.8433C56.3054 28.2345 55.6332 27.7478 54.883 27.4145C54.1327 27.0812 53.321 26.9088 52.5 26.9083ZM52.513 65.8799C50.7903 65.8799 49.1382 66.5643 47.9201 67.7824C46.702 69.0005 46.0177 70.6526 46.0177 72.3752C46.0177 74.0979 46.702 75.75 47.9201 76.9681C49.1382 78.1862 50.7903 78.8705 52.513 78.8705C54.2356 78.8705 55.8877 78.1862 57.1058 76.9681C58.3239 75.75 59.0083 74.0979 59.0083 72.3752C59.0083 70.6526 58.3239 69.0005 57.1058 67.7824C55.8877 66.5643 54.2356 65.8799 52.513 65.8799Z" fill="#E94444"/>
</svg>
