<svg width="48" height="48" viewBox="0 0 48 48" fill="none" xmlns="http://www.w3.org/2000/svg">
<rect x="6" y="6" width="36" height="36" rx="5" stroke="#AFBDCA" stroke-width="3" stroke-linecap="round" stroke-linejoin="round"/>
<path d="M30.646 16.6469L30.6469 16.646C30.8423 16.4511 31.1587 16.4514 31.3538 16.6467C31.5488 16.842 31.5487 17.1584 31.3536 17.3536C31.1584 17.5487 30.842 17.5488 30.6467 17.3538C30.4514 17.1587 30.4511 16.8423 30.646 16.6469" stroke="#AFBDCA" stroke-width="3" stroke-linecap="round" stroke-linejoin="round"/>
<path d="M42 16V19.0052C42 21.4665 41.0222 23.8271 39.2818 25.5675C37.5413 27.308 35.1808 28.2857 32.7194 28.2857V28.2857C31.3447 28.2857 29.9872 27.9803 28.7449 27.3916L19.2551 22.8942C18.0129 22.3054 16.6553 22 15.2806 22V22C12.8192 22 10.4587 22.9778 8.71821 24.7182C6.97776 26.4587 5.99999 28.8192 6 31.2806V32" stroke="#AFBDCA" stroke-width="3" stroke-linecap="round" stroke-linejoin="round"/>
</svg>
