<svg width="23" height="23" viewBox="0 0 23 23" fill="none" xmlns="http://www.w3.org/2000/svg">
<g clip-path="url(#clip0_3522_17922)">
<path d="M20.9213 0.866211H2.03738C1.39056 0.866211 0.866211 1.39056 0.866211 2.03738V20.9213C0.866211 21.5681 1.39056 22.0925 2.03738 22.0925H20.9213C21.5681 22.0925 22.0925 21.5681 22.0925 20.9213V2.03738C22.0925 1.39056 21.5681 0.866211 20.9213 0.866211Z" fill="#1877F2"/>
<path d="M15.5102 22.0906V13.8709H18.2687L18.6812 10.6677H15.5102V8.62304C15.5102 7.6958 15.7685 7.06269 17.0975 7.06269H18.7942V4.19306C17.9726 4.10759 17.1469 4.06688 16.3209 4.0711C13.8781 4.0711 12.1958 5.55972 12.1958 8.30559V10.6677H9.43738V13.8709H12.1958V22.0906H15.5102Z" fill="white"/>
</g>
<defs>
<clipPath id="clip0_3522_17922">
<rect width="22.957" height="22.957" fill="white"/>
</clipPath>
</defs>
</svg>
