<svg width="32" height="23" viewBox="0 0 32 23" fill="none" xmlns="http://www.w3.org/2000/svg">
<g clip-path="url(#clip0_3522_17935)">
<path d="M6.94012 21.8275V11.1092L3.61604 8.06818L0.635254 6.38062V19.936C0.635254 20.9826 1.48321 21.8275 2.52676 21.8275H6.94012Z" fill="#4285F4"/>
<path d="M22.0718 21.8277H26.4851C27.5318 21.8277 28.3766 20.9796 28.3766 19.9362V6.38086L25.0004 8.31376L22.0718 11.1093V21.8277Z" fill="#34A853"/>
<path d="M6.94011 11.1093L6.48779 6.92138L6.94011 2.91309L14.5059 8.58749L22.0717 2.91309L22.5777 6.70498L22.0717 11.1093L14.5059 16.7838L6.94011 11.1093Z" fill="#EA4335"/>
<path d="M22.0718 2.91314V11.1094L28.3766 6.3808V3.85884C28.3766 1.51979 25.7065 0.18636 23.8373 1.58914L22.0718 2.91314Z" fill="#FBBC04"/>
<path d="M0.635254 6.38085L3.53498 8.55573L6.94012 11.1094V2.91319L5.17465 1.58919C3.30211 0.186301 0.635254 1.51984 0.635254 3.85878V6.38085Z" fill="#C5221F"/>
</g>
<defs>
<clipPath id="clip0_3522_17935">
<rect width="30.4508" height="22.957" fill="white" transform="translate(0.635254)"/>
</clipPath>
</defs>
</svg>
