<svg width="22" height="22" viewBox="0 0 22 22" fill="none" xmlns="http://www.w3.org/2000/svg">
<path d="M11 20.1666C16.0626 20.1666 20.1667 16.0625 20.1667 10.9999C20.1667 5.93731 16.0626 1.83325 11 1.83325C5.9374 1.83325 1.83334 5.93731 1.83334 10.9999C1.83334 16.0625 5.9374 20.1666 11 20.1666Z" stroke="#64748B" stroke-width="1.5" stroke-linecap="round" stroke-linejoin="round"/>
<path d="M8.33252 8.25003C8.54803 7.6374 8.97341 7.1208 9.53331 6.79174C10.0932 6.46268 10.7515 6.34239 11.3916 6.45219C12.0317 6.56198 12.6123 6.89476 13.0305 7.3916C13.4487 7.88844 13.6777 8.51726 13.6767 9.1667C13.6767 11 10.9267 11.9167 10.9267 11.9167M11 15.5834H11.0092" stroke="#64748B" stroke-width="1.5" stroke-linecap="round" stroke-linejoin="round"/>
</svg>
