<svg width="42" height="42" viewBox="0 0 42 42" fill="none" xmlns="http://www.w3.org/2000/svg">
<path opacity="0.5" d="M5.551 12.551C7.02625 11.074 9.1525 10.661 12.691 10.5455L15.316 10.5035C16.0002 10.5 16.73 10.5 17.5 10.5H24.5C25.2717 10.5 25.9998 10.5 26.684 10.5035L29.309 10.5455C32.8475 10.661 34.9737 11.074 36.449 12.551C38.5 14.6002 38.5 17.9008 38.5 24.5C38.5 31.0993 38.5 34.3997 36.449 36.449C34.3997 38.5 31.0993 38.5 24.5 38.5H17.5C10.9008 38.5 7.60025 38.5 5.551 36.449C3.5 34.3997 3.5 31.0993 3.5 24.5C3.5 17.9008 3.5 14.6002 5.551 12.551Z" fill="#F9DDCD"/>
<path d="M22.3125 17.5C22.3125 17.1519 22.1742 16.8181 21.9281 16.5719C21.6819 16.3258 21.3481 16.1875 21 16.1875C20.6519 16.1875 20.318 16.3258 20.0719 16.5719C19.8258 16.8181 19.6875 17.1519 19.6875 17.5V17.5175C17.7817 17.997 16.1875 19.5002 16.1875 21.5828C16.1875 24.1325 18.5762 25.8125 21 25.8125C22.442 25.8125 23.1875 26.7452 23.1875 27.4172C23.1875 28.0893 22.442 29.0203 21 29.0203C19.558 29.0203 18.8125 28.0893 18.8125 27.4172C18.8125 27.0692 18.6742 26.7353 18.4281 26.4892C18.1819 26.243 17.8481 26.1047 17.5 26.1047C17.1519 26.1047 16.818 26.243 16.5719 26.4892C16.3258 26.7353 16.1875 27.0692 16.1875 27.4172C16.1875 29.4998 17.7817 31.0012 19.6875 31.4825V31.5C19.6875 31.8481 19.8258 32.1819 20.0719 32.4281C20.318 32.6742 20.6519 32.8125 21 32.8125C21.3481 32.8125 21.6819 32.6742 21.9281 32.4281C22.1742 32.1819 22.3125 31.8481 22.3125 31.5V31.4825C24.2182 31.003 25.8125 29.4998 25.8125 27.4172C25.8125 24.8675 23.4237 23.1875 21 23.1875C19.558 23.1875 18.8125 22.2548 18.8125 21.5828C18.8125 20.9107 19.558 19.9797 21 19.9797C22.442 19.9797 23.1875 20.9107 23.1875 21.5828C23.1875 21.9308 23.3258 22.2647 23.5719 22.5108C23.818 22.757 24.1519 22.8953 24.5 22.8953C24.8481 22.8953 25.1819 22.757 25.4281 22.5108C25.6742 22.2647 25.8125 21.9308 25.8125 21.5828C25.8125 19.5002 24.2182 17.997 22.3125 17.5175V17.5ZM21.091 2.1875H20.909C19.3375 2.1875 18.025 2.1875 16.9855 2.3275C15.8865 2.4745 14.8942 2.8 14.098 3.59625C13.3 4.39425 12.9745 5.3865 12.8275 6.48375C12.7277 7.231 12.6997 9.01425 12.691 10.5437L15.316 10.5035C15.3247 9.02125 15.351 7.427 15.4297 6.83375C15.5382 6.027 15.7255 5.6805 15.9547 5.453C16.1822 5.2255 16.527 5.03825 17.3355 4.928C18.1807 4.816 19.313 4.8125 21 4.8125C22.687 4.8125 23.821 4.816 24.6662 4.92975C25.473 5.03825 25.8195 5.2255 26.047 5.45475C26.2745 5.68225 26.4635 6.027 26.572 6.83375C26.6507 7.42875 26.677 9.02125 26.684 10.5035L29.309 10.5455C29.302 9.01425 29.274 7.231 29.1725 6.4855C29.0255 5.3865 28.7 4.39425 27.9037 3.598C27.1057 2.8 26.1135 2.4745 25.0162 2.3275C23.975 2.1875 22.6642 2.1875 21.091 2.1875Z" fill="#F9DDCD"/>
</svg>
