<svg width="22" height="22" viewBox="0 0 22 22" fill="none" xmlns="http://www.w3.org/2000/svg">
<path d="M1.83334 11.1869C1.83334 9.08867 1.83334 8.04 2.31001 7.171C2.78484 6.30109 3.65476 5.76209 5.39368 4.68225L7.22701 3.54467C9.06493 2.40342 9.98434 1.83325 11 1.83325C12.0157 1.83325 12.9342 2.40342 14.773 3.54467L16.6063 4.68225C18.3453 5.76209 19.2152 6.30109 19.6909 7.171C20.1667 8.04 20.1667 9.08867 20.1667 11.186V12.5812C20.1667 16.1562 20.1667 17.9446 19.0923 19.0556C18.0189 20.1666 16.2901 20.1666 12.8333 20.1666H9.16668C5.70993 20.1666 3.98109 20.1666 2.90768 19.0556C1.83334 17.9446 1.83334 16.1571 1.83334 12.5812V11.1869Z" stroke="#FF6600" stroke-width="1.5"/>
<path d="M11 13.75V16.5" stroke="#FF6600" stroke-width="1.5" stroke-linecap="round"/>
</svg>
