<svg width="247" height="51" viewBox="0 0 247 51" fill="none" xmlns="http://www.w3.org/2000/svg">
<rect y="1.49805" width="48.1992" height="48.1992" rx="12.0498" fill="white"/>
<path d="M67.5585 39.4941V10.173H74.1457V39.4941H67.5585ZM73.3424 27.6853V22.2228H84.6692V27.6853H73.3424ZM73.3424 15.6355V10.173H85.1512V15.6355H73.3424ZM90.1892 39.4941V10.173H96.6559V39.4941H90.1892ZM87.5784 14.9126V10.173H96.6559V14.9126H87.5784ZM112.659 40.2573C110.785 40.2573 109.125 39.936 107.679 39.2933C106.259 38.6507 105.068 37.7938 104.104 36.7227C103.167 35.6248 102.444 34.4064 101.935 33.0676C101.453 31.7019 101.212 30.3095 101.212 28.8903V28.087C101.212 26.6142 101.453 25.2084 101.935 23.8696C102.444 22.5039 103.167 21.2856 104.104 20.2145C105.041 19.1434 106.206 18.2999 107.598 17.684C109.018 17.0414 110.624 16.72 112.418 16.72C114.775 16.72 116.756 17.2556 118.363 18.3267C119.996 19.371 121.241 20.75 122.098 22.4638C122.955 24.1507 123.384 25.9984 123.384 28.0067V30.1756H103.903V26.5205H119.487L117.399 28.2075C117.399 26.8954 117.211 25.7708 116.837 24.8336C116.462 23.8964 115.899 23.1868 115.15 22.7048C114.427 22.196 113.516 21.9416 112.418 21.9416C111.294 21.9416 110.343 22.196 109.566 22.7048C108.79 23.2135 108.201 23.9633 107.799 24.9541C107.398 25.918 107.197 27.1096 107.197 28.5288C107.197 29.8409 107.384 30.9923 107.759 31.9831C108.134 32.9471 108.723 33.6969 109.526 34.2324C110.33 34.7679 111.374 35.0357 112.659 35.0357C113.837 35.0357 114.801 34.8081 115.551 34.3529C116.301 33.8977 116.81 33.3354 117.078 32.6659H122.982C122.661 34.1387 122.031 35.4508 121.094 36.6022C120.157 37.7536 118.979 38.6507 117.559 39.2933C116.14 39.936 114.507 40.2573 112.659 40.2573ZM125.074 39.4941L131.903 27.6853L131.742 28.6895L125.315 17.4832H132.264L136.24 24.9541H136.883L140.619 17.4832H147.166L141.02 28.7698L141.181 27.9263L148.411 39.4941H141.422L136.682 31.5011H136.04L131.581 39.4941H125.074ZM152.009 39.4941V10.173H158.596V39.4941H152.009ZM157.793 27.6853V22.2228H169.12V27.6853H157.793ZM157.793 15.6355V10.173H169.602V15.6355H157.793ZM174.64 39.4941V10.173H181.106V39.4941H174.64ZM172.029 14.9126V10.173H181.106V14.9126H172.029ZM197.752 40.2573C195.824 40.2573 194.111 39.9627 192.611 39.3736C191.112 38.7578 189.84 37.9277 188.795 36.8834C187.778 35.839 187.001 34.6474 186.466 33.3086C185.93 31.9429 185.662 30.5103 185.662 29.0108V28.087C185.662 26.5607 185.93 25.1147 186.466 23.7491C187.028 22.3567 187.831 21.1383 188.876 20.094C189.947 19.0497 191.232 18.2329 192.732 17.6438C194.231 17.028 195.905 16.72 197.752 16.72C199.654 16.72 201.341 17.028 202.813 17.6438C204.313 18.2329 205.585 19.0497 206.629 20.094C207.673 21.1383 208.477 22.3567 209.039 23.7491C209.601 25.1147 209.883 26.5607 209.883 28.087V29.0108C209.883 30.5103 209.615 31.9429 209.079 33.3086C208.544 34.6474 207.754 35.839 206.709 36.8834C205.692 37.9277 204.433 38.7578 202.934 39.3736C201.434 39.9627 199.707 40.2573 197.752 40.2573ZM197.752 34.8349C199.011 34.8349 200.055 34.5671 200.885 34.0316C201.715 33.496 202.345 32.7463 202.773 31.7823C203.228 30.8183 203.456 29.7472 203.456 28.569C203.456 27.3105 203.228 26.2126 202.773 25.2754C202.318 24.3114 201.662 23.5482 200.805 22.9859C199.975 22.4236 198.957 22.1424 197.752 22.1424C196.574 22.1424 195.557 22.4236 194.7 22.9859C193.843 23.5482 193.187 24.3114 192.732 25.2754C192.303 26.2126 192.089 27.3105 192.089 28.569C192.089 29.7472 192.303 30.8183 192.732 31.7823C193.16 32.7463 193.803 33.496 194.66 34.0316C195.517 34.5671 196.547 34.8349 197.752 34.8349ZM221.931 39.4941L225.948 18.2062H232.977L237.636 39.4941H232.655L227.876 18.3668H230.727L226.43 39.4941H221.931ZM220.405 39.4941L220.365 34.1521H224.783L224.823 39.4941H220.405ZM217.513 39.4941L211.608 17.4832H217.915L223.417 39.4941H217.513ZM234.302 39.4941L234.342 34.1521H238.761V39.4941H234.302ZM236.11 39.4941L241.01 17.4832H246.914L241.612 39.4941H236.11Z" fill="white"/>
<path fill-rule="evenodd" clip-rule="evenodd" d="M0.917236 8.93683C0 11.1512 0 13.9585 0 19.573V31.6228C0 37.2373 0 40.0445 0.917236 42.2589C2.14022 45.2115 4.486 47.5572 7.43854 48.7802C9.65294 49.6975 12.4602 49.6975 18.0747 49.6975H30.1245C35.739 49.6975 38.5462 49.6975 40.7606 48.7802C43.7132 47.5572 46.059 45.2115 47.2819 42.2589C48.1992 40.0445 48.1992 37.2373 48.1992 31.6228V19.573C48.1992 13.9585 48.1992 11.1512 47.2819 8.93683C46.059 5.98429 43.7132 3.63851 40.7606 2.41553C38.5462 1.49829 35.739 1.49829 30.1245 1.49829H18.0747C12.4602 1.49829 9.65294 1.49829 7.43854 2.41553C4.486 3.63851 2.14022 5.98429 0.917236 8.93683ZM31.0056 15.5635C31.2348 15.546 31.4643 15.593 31.6681 15.6992L34.8111 17.3339C35.0488 17.4533 35.2412 17.6469 35.3593 17.8853C35.4318 18.03 35.475 18.1877 35.4863 18.3492C35.4977 18.5107 35.477 18.6728 35.4254 18.8263C35.3739 18.9797 35.2925 19.1215 35.1859 19.2433C35.0794 19.3652 34.9498 19.4648 34.8046 19.5364C32.6677 20.6022 30.33 21.2051 27.9442 21.3056C26.0657 21.3056 24.6537 20.5706 23.5007 19.9703L23.4964 19.968L23.4308 19.9352C22.2392 19.3148 21.307 18.8504 20.081 18.8438C18.0666 18.9418 16.0945 19.4565 14.2891 20.3554C14.1442 20.4288 13.9862 20.4728 13.8243 20.4849C13.6623 20.497 13.4995 20.4769 13.3453 20.4258C13.1912 20.3747 13.0486 20.2936 12.9259 20.1871C12.8033 20.0807 12.7029 19.951 12.6305 19.8056C12.5582 19.6602 12.5154 19.5018 12.5045 19.3398C12.4936 19.1777 12.5149 19.0151 12.5672 18.8613C12.6194 18.7075 12.7016 18.5656 12.809 18.4437C12.9164 18.3219 13.0468 18.2224 13.1928 18.1512C15.3304 17.0875 17.6677 16.4847 20.0531 16.3819C21.934 16.3819 23.3471 17.1172 24.5009 17.7179L24.5665 17.7507C25.7581 18.3711 26.6903 18.8356 27.9163 18.8421C28.6715 18.8061 29.4227 18.7112 30.1631 18.5582L29.8874 17.0056C29.8473 16.7793 29.8714 16.5462 29.9569 16.3329C30.0424 16.1195 30.186 15.9344 30.3713 15.7984C30.5567 15.6624 30.7764 15.5811 31.0056 15.5635ZM20.0531 23.7675C20.0345 23.7676 20.0159 23.7682 19.9973 23.7691C17.6309 23.8791 15.3135 24.4811 13.1928 25.5367C13.0479 25.6086 12.9187 25.7083 12.8124 25.8302C12.7061 25.952 12.6248 26.0936 12.5732 26.2468C12.5216 26.4001 12.5007 26.562 12.5117 26.7233C12.5227 26.8846 12.5653 27.0422 12.6372 27.187C12.7091 27.3318 12.8088 27.4611 12.9306 27.5674C13.0524 27.6737 13.194 27.755 13.3473 27.8066C13.5005 27.8582 13.6624 27.8791 13.8237 27.8681C13.985 27.8571 14.1426 27.8144 14.2875 27.7426C16.0932 26.8429 18.066 26.3276 20.081 26.2294C21.307 26.2359 22.2392 26.702 23.4308 27.3224L23.4964 27.3552C24.6502 27.9559 26.0633 28.6912 27.9442 28.6912C29.3205 28.6326 30.6845 28.4066 32.0062 28.0183C32.9692 27.7351 33.9055 27.3683 34.8046 26.922C35.0784 26.7858 35.2915 26.5523 35.402 26.2671C35.5149 25.982 35.5169 25.6649 35.4075 25.3784C35.2981 25.0919 35.0853 24.8567 34.8111 24.7194L31.6681 23.0847C31.4613 22.9771 31.2281 22.9305 30.9958 22.9503C30.7634 22.97 30.5415 23.0554 30.3557 23.1964C30.17 23.3374 30.0282 23.5283 29.9467 23.7468C29.8653 23.9652 29.8475 24.2024 29.8956 24.4306L30.2107 25.9339C29.455 26.0931 28.6877 26.1919 27.9163 26.2294C26.6903 26.2228 25.7581 25.7567 24.5665 25.1363L24.5009 25.1035C23.3471 24.5028 21.934 23.7675 20.0531 23.7675ZM20.0531 31.1547H19.9973C17.6308 31.2652 15.3134 31.8678 13.1928 32.924C13.0438 32.9933 12.9102 33.0917 12.7999 33.2134C12.6896 33.3351 12.6047 33.4777 12.5504 33.6328C12.496 33.7878 12.4733 33.9522 12.4834 34.1161C12.4936 34.2801 12.5365 34.4404 12.6096 34.5875C12.6826 34.7347 12.7844 34.8657 12.9089 34.9729C13.0334 35.0801 13.1782 35.1612 13.3345 35.2116C13.4909 35.262 13.6558 35.2806 13.8194 35.2662C13.9831 35.2519 14.1422 35.2049 14.2875 35.1281C16.0933 34.229 18.0661 33.7143 20.081 33.6166C21.307 33.6231 22.2392 34.0876 23.4308 34.708L23.4964 34.7408L23.5007 34.743C24.6537 35.3433 26.0657 36.0784 27.9442 36.0784C30.3296 35.9753 32.6668 35.3725 34.8046 34.3092C35.0787 34.1726 35.2918 33.9384 35.402 33.6527C35.5144 33.3677 35.5161 33.051 35.4068 32.7649C35.2974 32.4788 35.0849 32.2439 34.8111 32.1066L31.6681 30.4719C31.4609 30.3643 31.2273 30.3178 30.9947 30.338C30.762 30.3581 30.5399 30.444 30.3542 30.5856C30.1686 30.7272 30.027 30.9187 29.9461 31.1378C29.8652 31.3568 29.8482 31.5944 29.8973 31.8227L30.2173 33.3195C29.4594 33.4793 28.6899 33.5781 27.9163 33.6149C26.6903 33.6083 25.7581 33.1439 24.5665 32.5235L24.5009 32.4907C23.3471 31.89 21.934 31.1547 20.0531 31.1547Z" fill="#FF6600"/>
</svg>
