<svg width="42" height="42" viewBox="0 0 42 42" fill="none" xmlns="http://www.w3.org/2000/svg">
<path opacity="0.5" d="M6.062 6.062C8.6275 3.5 12.7505 3.5 21 3.5C29.2495 3.5 33.3743 3.5 35.9362 6.062C38.5 8.6275 38.5 12.7505 38.5 21C38.5 29.2495 38.5 33.3743 35.9362 35.9362C33.376 38.5 29.2495 38.5 21 38.5C12.7505 38.5 8.62575 38.5 6.062 35.9362C3.5 33.376 3.5 29.2495 3.5 21C3.5 12.7505 3.5 8.62575 6.062 6.062Z" fill="#F9DDCD"/>
<path fill-rule="evenodd" clip-rule="evenodd" d="M28.8225 2.5733C29.0686 2.32751 29.4022 2.18945 29.75 2.18945C30.0978 2.18945 30.4314 2.32751 30.6775 2.5733L39.4275 11.3233C39.6733 11.5694 39.8113 11.903 39.8113 12.2508C39.8113 12.5986 39.6733 12.9322 39.4275 13.1783L30.6775 21.9283C30.5573 22.0572 30.4124 22.1607 30.2514 22.2324C30.0904 22.3041 29.9166 22.3427 29.7404 22.3458C29.5642 22.3489 29.3891 22.3165 29.2257 22.2505C29.0623 22.1845 28.9138 22.0862 28.7892 21.9616C28.6645 21.837 28.5663 21.6885 28.5003 21.5251C28.4343 21.3617 28.4019 21.1866 28.405 21.0104C28.4081 20.8342 28.4466 20.6604 28.5184 20.4994C28.5901 20.3384 28.6935 20.1935 28.8225 20.0733L35.3325 13.5633H24.5C21.784 13.5633 20.1827 14.888 19.621 15.4533L19.2885 15.7875L18.9508 16.1218C18.3873 16.6818 17.0625 18.2848 17.0625 21.0008V26.2508C17.0625 26.5989 16.9242 26.9327 16.6781 27.1789C16.4319 27.425 16.0981 27.5633 15.75 27.5633C15.4019 27.5633 15.0681 27.425 14.8219 27.1789C14.5758 26.9327 14.4375 26.5989 14.4375 26.2508V21.0008C14.4375 17.3538 16.2347 15.1208 17.0992 14.2615L17.4318 13.9308L17.7608 13.6C18.62 12.7355 20.853 10.9383 24.5 10.9383H35.3325L28.8225 4.4283C28.5767 4.1822 28.4387 3.84861 28.4387 3.5008C28.4387 3.15298 28.5767 2.81939 28.8225 2.5733Z" fill="#F9DDCD"/>
</svg>
