<svg width="24" height="23" viewBox="0 0 24 23" fill="none" xmlns="http://www.w3.org/2000/svg">
<g clip-path="url(#clip0_3522_17932)">
<path d="M21.4831 0.538169H2.83047C2.40726 0.533862 1.99962 0.69762 1.69701 0.993512C1.39439 1.2894 1.22151 1.69326 1.21631 2.11646V20.8444C1.22245 21.2669 1.39574 21.6699 1.69826 21.965C2.00077 22.2601 2.40787 22.4234 2.83047 22.4191H21.4831C21.9063 22.4224 22.3137 22.2581 22.6161 21.962C22.9186 21.666 23.0915 21.2622 23.0972 20.839V2.11108C23.0897 1.68912 22.9159 1.28719 22.6136 0.992656C22.3114 0.698123 21.9051 0.534793 21.4831 0.538169Z" fill="#0076B2"/>
<path d="M4.45541 8.73977H7.70347V19.1906H4.45541V8.73977ZM6.08034 3.53857C6.45287 3.53857 6.81704 3.64907 7.12677 3.85607C7.4365 4.06308 7.67787 4.3573 7.82035 4.70152C7.96283 5.04573 8.00002 5.42447 7.92721 5.78982C7.8544 6.15517 7.67487 6.49072 7.41132 6.75402C7.14777 7.01732 6.81205 7.19653 6.44663 7.26899C6.08121 7.34145 5.7025 7.30391 5.35843 7.1611C5.01435 7.01829 4.72036 6.77663 4.51365 6.46671C4.30694 6.15678 4.19679 5.79251 4.19714 5.41997C4.19762 4.92083 4.39624 4.44229 4.74935 4.08951C5.10247 3.73674 5.58119 3.53857 6.08034 3.53857ZM9.74091 8.73977H12.8545V10.1746H12.8975C13.3315 9.35316 14.3897 8.48689 15.9698 8.48689C19.2591 8.47971 19.8689 10.6445 19.8689 13.4513V19.1906H16.6208V14.106C16.6208 12.8954 16.5993 11.3368 14.9331 11.3368C13.267 11.3368 12.9836 12.6568 12.9836 14.0271V19.1906H9.74091V8.73977Z" fill="white"/>
</g>
<defs>
<clipPath id="clip0_3522_17932">
<rect width="22.957" height="22.957" fill="white" transform="translate(0.678223)"/>
</clipPath>
</defs>
</svg>
