<svg width="42" height="42" viewBox="0 0 42 42" fill="none" xmlns="http://www.w3.org/2000/svg">
<path opacity="0.5" d="M6.062 35.938C8.6275 38.5 12.7505 38.5 21 38.5C29.2495 38.5 33.3743 38.5 35.9362 35.9362C38.5 33.376 38.5 29.2495 38.5 21C38.5 12.7505 38.5 8.62575 35.9362 6.062C33.376 3.5 29.2495 3.5 21 3.5C12.7505 3.5 8.62575 3.5 6.062 6.062C3.5 8.6275 3.5 12.7505 3.5 21C3.5 29.2495 3.5 33.376 6.062 35.938Z" fill="#F9DDCD"/>
<path d="M16.625 15.3125C15.5001 15.3125 14.4005 15.6461 13.4652 16.271C12.5299 16.896 11.8009 17.7842 11.3704 18.8235C10.94 19.8627 10.8273 21.0063 11.0468 22.1096C11.2662 23.2128 11.8079 24.2263 12.6033 25.0217C13.3987 25.8171 14.4122 26.3588 15.5154 26.5782C16.6187 26.7977 17.7623 26.685 18.8015 26.2546C19.8408 25.8241 20.729 25.0951 21.354 24.1598C21.9789 23.2245 22.3125 22.1249 22.3125 21C22.3125 20.6519 22.4508 20.3181 22.6969 20.0719C22.9431 19.8258 23.2769 19.6875 23.625 19.6875C23.9731 19.6875 24.3069 19.8258 24.5531 20.0719C24.7992 20.3181 24.9375 20.6519 24.9375 21C24.9375 22.6441 24.45 24.2512 23.5366 25.6182C22.6232 26.9852 21.325 28.0506 19.8061 28.6797C18.2871 29.3089 16.6158 29.4735 15.0033 29.1528C13.3908 28.832 11.9097 28.0403 10.7472 26.8778C9.58465 25.7153 8.79297 24.2342 8.47223 22.6217C8.15149 21.0092 8.3161 19.3379 8.94526 17.8189C9.57441 16.3 10.6398 15.0018 12.0068 14.0884C13.3738 13.175 14.9809 12.6875 16.625 12.6875C16.9731 12.6875 17.3069 12.8258 17.5531 13.0719C17.7992 13.3181 17.9375 13.6519 17.9375 14C17.9375 14.3481 17.7992 14.6819 17.5531 14.9281C17.3069 15.1742 16.9731 15.3125 16.625 15.3125Z" fill="#F9DDCD"/>
<path d="M31.0625 21C31.0625 22.5084 30.4633 23.9551 29.3967 25.0217C28.3301 26.0883 26.8834 26.6875 25.375 26.6875C25.0269 26.6875 24.6931 26.8258 24.4469 27.0719C24.2008 27.3181 24.0625 27.6519 24.0625 28C24.0625 28.3481 24.2008 28.6819 24.4469 28.9281C24.6931 29.1742 25.0269 29.3125 25.375 29.3125C27.0191 29.3125 28.6262 28.825 29.9932 27.9116C31.3602 26.9982 32.4256 25.7 33.0547 24.1811C33.6839 22.6621 33.8485 20.9908 33.5278 19.3783C33.207 17.7658 32.4153 16.2847 31.2528 15.1222C30.0903 13.9597 28.6092 13.168 26.9967 12.8472C25.3842 12.5265 23.7129 12.6911 22.1939 13.3203C20.675 13.9494 19.3768 15.0148 18.4634 16.3818C17.55 17.7488 17.0625 19.3559 17.0625 21C17.0625 21.3481 17.2008 21.6819 17.4469 21.9281C17.6931 22.1742 18.0269 22.3125 18.375 22.3125C18.7231 22.3125 19.0569 22.1742 19.3031 21.9281C19.5492 21.6819 19.6875 21.3481 19.6875 21C19.6875 19.4916 20.2867 18.0449 21.3533 16.9783C22.4199 15.9117 23.8666 15.3125 25.375 15.3125C26.8834 15.3125 28.3301 15.9117 29.3967 16.9783C30.4633 18.0449 31.0625 19.4916 31.0625 21Z" fill="#F9DDCD"/>
</svg>
