<svg width="209" height="64" viewBox="0 0 209 64" fill="none" xmlns="http://www.w3.org/2000/svg">
<path fill-rule="evenodd" clip-rule="evenodd" d="M0.768772 6.23453C0 8.09052 0 10.4434 0 15.1491V25.2485C0 29.9543 0 32.3071 0.768772 34.1631C1.7938 36.6378 3.7599 38.6039 6.23453 39.6289C8.09052 40.3977 10.4434 40.3977 15.1491 40.3977H25.2485C29.9543 40.3977 32.3071 40.3977 34.1631 39.6289C36.6378 38.6039 38.6039 36.6378 39.6289 34.1631C40.3977 32.3071 40.3977 29.9543 40.3977 25.2485V15.1491C40.3977 10.4434 40.3977 8.09052 39.6289 6.23453C38.6039 3.7599 36.6378 1.7938 34.1631 0.768772C32.3071 0 29.9543 0 25.2485 0H15.1491C10.4434 0 8.09052 0 6.23453 0.768772C3.7599 1.7938 1.7938 3.7599 0.768772 6.23453ZM25.9874 11.7895C26.1795 11.7748 26.3719 11.8142 26.5427 11.9032L29.177 13.2733C29.3762 13.3734 29.5375 13.5357 29.6364 13.7355C29.6972 13.8568 29.7334 13.9889 29.7429 14.1243C29.7524 14.2596 29.7351 14.3955 29.6919 14.5242C29.6487 14.6528 29.5804 14.7716 29.4911 14.8737C29.4018 14.9759 29.2932 15.0593 29.1715 15.1193C27.3805 16.0127 25.4212 16.518 23.4215 16.6022C21.8471 16.6022 20.6637 15.9861 19.6973 15.483L19.6937 15.4811L19.6387 15.4536C18.64 14.9336 17.8587 14.5443 16.8311 14.5388C15.1428 14.621 13.4898 15.0523 11.9767 15.8058C11.8552 15.8673 11.7228 15.9042 11.5871 15.9143C11.4513 15.9245 11.3149 15.9076 11.1857 15.8648C11.0564 15.822 10.937 15.754 10.8342 15.6648C10.7313 15.5755 10.6472 15.4669 10.5866 15.345C10.5259 15.2231 10.49 15.0904 10.4809 14.9546C10.4718 14.8187 10.4897 14.6824 10.5335 14.5535C10.5773 14.4246 10.6461 14.3057 10.7361 14.2035C10.8261 14.1014 10.9354 14.0181 11.0578 13.9583C12.8494 13.0668 14.8084 12.5616 16.8077 12.4755C18.3841 12.4755 19.5685 13.0917 20.5356 13.5952L20.5906 13.6227C21.5893 14.1427 22.3706 14.532 23.3982 14.5375C24.0311 14.5073 24.6608 14.4277 25.2813 14.2995L25.0502 12.9982C25.0166 12.8085 25.0368 12.6132 25.1085 12.4343C25.1802 12.2555 25.3005 12.1003 25.4558 11.9864C25.6112 11.8724 25.7953 11.8042 25.9874 11.7895ZM16.7862 18.666C16.7778 18.6662 16.7694 18.6665 16.761 18.667C14.7776 18.7591 12.8352 19.2637 11.0578 20.1485C10.9364 20.2087 10.828 20.2923 10.7389 20.3944C10.6499 20.4965 10.5817 20.6152 10.5385 20.7436C10.4953 20.8721 10.4777 21.0078 10.4869 21.143C10.4962 21.2782 10.5319 21.4102 10.5921 21.5316C10.6524 21.653 10.736 21.7614 10.8381 21.8505C10.9402 21.9396 11.0588 22.0077 11.1873 22.0509C11.3157 22.0941 11.4514 22.1117 11.5866 22.1025C11.7218 22.0933 11.8539 22.0575 11.9753 21.9973C13.4888 21.2432 15.1422 20.8113 16.8311 20.729C17.8587 20.7345 18.64 21.1251 19.6387 21.6451L19.6937 21.6726C20.6607 22.1761 21.8451 22.7924 23.4215 22.7924C24.5751 22.7432 25.7183 22.5538 26.8261 22.2284C27.6332 21.991 28.418 21.6836 29.1715 21.3095C29.401 21.1954 29.5796 20.9996 29.6722 20.7606C29.7669 20.5216 29.7685 20.2559 29.6768 20.0157C29.5852 19.7756 29.4068 19.5785 29.177 19.4634L26.5427 18.0934C26.3694 18.0032 26.1739 17.9641 25.9792 17.9806C25.7844 17.9972 25.5984 18.0687 25.4428 18.1869C25.2871 18.3051 25.1682 18.4651 25.0999 18.6482C25.0317 18.8313 25.0168 19.0301 25.0571 19.2213L25.3212 20.4814C24.6878 20.6148 24.0447 20.6976 23.3982 20.729C22.3706 20.7235 21.5893 20.3328 20.5906 19.8128L20.5356 19.7853C19.5685 19.2819 18.3841 18.6656 16.8077 18.6656C16.8005 18.6656 16.7934 18.6658 16.7862 18.666ZM16.8077 24.8571H16.761C14.7775 24.9497 12.8351 25.4547 11.0578 26.34C10.9329 26.3981 10.821 26.4806 10.7285 26.5826C10.636 26.6846 10.5649 26.8041 10.5194 26.9341C10.4738 27.064 10.4548 27.2018 10.4633 27.3392C10.4718 27.4766 10.5077 27.611 10.569 27.7343C10.6302 27.8576 10.7155 27.9674 10.8199 28.0573C10.9243 28.1471 11.0455 28.2151 11.1766 28.2574C11.3077 28.2996 11.4459 28.3152 11.583 28.3031C11.7202 28.2911 11.8536 28.2518 11.9753 28.1874C13.4889 27.4338 15.1423 27.0025 16.8311 26.9205C17.8587 26.926 18.64 27.3153 19.6387 27.8353L19.6937 27.8628L19.6973 27.8646C20.6637 28.3678 21.8471 28.9839 23.4215 28.9839C25.4208 28.8974 27.3797 28.3922 29.1715 27.501C29.4013 27.3866 29.5799 27.1903 29.6722 26.9508C29.7665 26.7119 29.7679 26.4465 29.6763 26.2067C29.5846 25.9669 29.4065 25.77 29.177 25.6549L26.5427 24.2849C26.3691 24.1946 26.1733 24.1557 25.9783 24.1726C25.7833 24.1894 25.5971 24.2614 25.4415 24.3801C25.2859 24.4988 25.1672 24.6593 25.0994 24.8429C25.0316 25.0265 25.0174 25.2256 25.0585 25.417L25.3267 26.6715C24.6915 26.8054 24.0466 26.8882 23.3982 26.9191C22.3706 26.9136 21.5893 26.5243 20.5906 26.0043L20.5356 25.9768C19.5685 25.4734 18.3841 24.8571 16.8077 24.8571Z" fill="#FF6600"/>
<path d="M57.1027 32V7.42476H62.6237V32H57.1027ZM61.9504 22.1026V17.5242H71.4439V22.1026H61.9504ZM61.9504 12.0032V7.42476H71.8478V12.0032H61.9504ZM76.0704 32V7.42476H81.4904V32H76.0704ZM73.8822 11.3972V7.42476H81.4904V11.3972H73.8822ZM94.9034 32.6396C93.3324 32.6396 91.9409 32.3703 90.729 31.8317C89.5395 31.293 88.5408 30.5749 87.7329 29.6771C86.9473 28.757 86.3414 27.7358 85.915 26.6136C85.511 25.469 85.309 24.302 85.309 23.1125V22.4392C85.309 21.2048 85.511 20.0266 85.915 18.9044C86.3414 17.7598 86.9473 16.7387 87.7329 15.8409C88.5184 14.9432 89.4946 14.2363 90.6617 13.7201C91.8512 13.1814 93.1978 12.9121 94.7014 12.9121C96.6764 12.9121 98.3372 13.361 99.6838 14.2587C101.053 15.134 102.096 16.2898 102.815 17.7262C103.533 19.1401 103.892 20.6887 103.892 22.3719V24.1898H87.5645V21.1263H100.626L98.8759 22.5402C98.8759 21.4405 98.7188 20.4979 98.4046 19.7124C98.0904 18.9269 97.6191 18.3321 96.9906 17.9282C96.3847 17.5017 95.6216 17.2885 94.7014 17.2885C93.7588 17.2885 92.9621 17.5017 92.3113 17.9282C91.6604 18.3546 91.1667 18.983 90.83 19.8134C90.4934 20.6213 90.325 21.62 90.325 22.8095C90.325 23.9092 90.4821 24.8743 90.7963 25.7047C91.1105 26.5127 91.6043 27.1411 92.2776 27.5899C92.9509 28.0388 93.8262 28.2632 94.9034 28.2632C95.8909 28.2632 96.6989 28.0725 97.3273 27.6909C97.9557 27.3094 98.3821 26.8381 98.6066 26.277H103.555C103.286 27.5114 102.759 28.6111 101.973 29.5761C101.188 30.5412 100.2 31.293 99.0105 31.8317C97.821 32.3703 96.452 32.6396 94.9034 32.6396ZM105.309 32L111.032 22.1026L110.897 22.9442L105.511 13.5517H111.335L114.668 19.8134H115.206L118.337 13.5517H123.825L118.674 23.0115L118.809 22.3046L124.868 32H119.011L115.038 25.3007H114.499L110.763 32H105.309ZM127.884 32V7.42476H133.405V32H127.884ZM132.732 22.1026V17.5242H142.225V22.1026H132.732ZM132.732 12.0032V7.42476H142.629V12.0032H132.732ZM146.852 32V7.42476H152.272V32H146.852ZM144.664 11.3972V7.42476H152.272V11.3972H144.664ZM166.223 32.6396C164.608 32.6396 163.171 32.3928 161.914 31.899C160.658 31.3828 159.591 30.6871 158.716 29.8118C157.863 28.9365 157.213 27.9378 156.764 26.8156C156.315 25.671 156.09 24.4703 156.09 23.2135V22.4392C156.09 21.16 156.315 19.948 156.764 18.8034C157.235 17.6364 157.908 16.6152 158.784 15.7399C159.681 14.8647 160.759 14.1801 162.015 13.6864C163.272 13.1702 164.675 12.9121 166.223 12.9121C167.817 12.9121 169.231 13.1702 170.465 13.6864C171.722 14.1801 172.788 14.8647 173.663 15.7399C174.539 16.6152 175.212 17.6364 175.683 18.8034C176.155 19.948 176.39 21.16 176.39 22.4392V23.2135C176.39 24.4703 176.166 25.671 175.717 26.8156C175.268 27.9378 174.606 28.9365 173.731 29.8118C172.878 30.6871 171.823 31.3828 170.566 31.899C169.309 32.3928 167.862 32.6396 166.223 32.6396ZM166.223 28.0949C167.278 28.0949 168.154 27.8705 168.849 27.4216C169.545 26.9727 170.072 26.3443 170.432 25.5364C170.813 24.7284 171.004 23.8307 171.004 22.8432C171.004 21.7884 170.813 20.8682 170.432 20.0827C170.05 19.2747 169.5 18.6351 168.782 18.1638C168.086 17.6925 167.233 17.4568 166.223 17.4568C165.236 17.4568 164.383 17.6925 163.665 18.1638C162.947 18.6351 162.397 19.2747 162.015 20.0827C161.656 20.8682 161.477 21.7884 161.477 22.8432C161.477 23.8307 161.656 24.7284 162.015 25.5364C162.374 26.3443 162.913 26.9727 163.631 27.4216C164.349 27.8705 165.213 28.0949 166.223 28.0949ZM186.489 32L189.855 14.1577H195.746L199.651 32H195.477L191.471 14.2924H193.861L190.259 32H186.489ZM185.209 32L185.176 27.5226H188.879L188.912 32H185.209ZM182.785 32L177.837 13.5517H183.122L187.734 32H182.785ZM196.857 32L196.891 27.5226H200.594V32H196.857ZM198.372 32L202.479 13.5517H207.428L202.984 32H198.372Z" fill="#0F172A"/>
<path d="M57.3251 54.3151V53.1395H60.308C60.9981 53.1395 61.5596 53.0108 61.9924 52.7535C62.4253 52.4844 62.7469 52.1335 62.9575 51.7007C63.1681 51.2562 63.2733 50.7649 63.2733 50.2268C63.2733 49.677 63.1681 49.1857 62.9575 48.7529C62.7469 48.3084 62.4253 47.9574 61.9924 47.7001C61.5596 47.4427 60.9981 47.3141 60.308 47.3141H57.3251V46.1384H60.0799C61.1093 46.1384 61.9574 46.3081 62.6241 46.6473C63.3026 46.9865 63.8056 47.4544 64.1331 48.051C64.4723 48.6476 64.642 49.3319 64.642 50.1039V50.3496C64.642 51.1099 64.4723 51.7943 64.1331 52.4025C63.8056 52.9991 63.3026 53.467 62.6241 53.8062C61.9574 54.1455 61.1093 54.3151 60.0799 54.3151H57.3251ZM56.3425 59V46.1384H57.676V59H56.3425ZM65.0653 59L69.7853 46.1911H72.1716L77.0495 59H75.6809L71.1363 47.0333L71.8558 47.4018H70.0134L70.7679 47.0333L66.3988 59H65.0653ZM67.592 54.9292L68.0306 53.7185H73.9789L74.4351 54.9292H67.592ZM79.6292 59V46.1384H80.9628V59H79.6292ZM87.5778 59L83.2087 53.3325H84.7704L89.2096 59H87.5778ZM80.4188 54.1396V52.9465H83.8579C84.4896 52.9465 85.016 52.8236 85.4371 52.578C85.8582 52.3323 86.1741 51.999 86.3846 51.5778C86.5952 51.1567 86.7005 50.6771 86.7005 50.139C86.7005 49.6009 86.5952 49.1213 86.3846 48.7002C86.1741 48.2791 85.8582 47.9457 85.4371 47.7001C85.016 47.4427 84.4896 47.3141 83.8579 47.3141H80.4188V46.1384H83.6298C84.5773 46.1384 85.3786 46.2905 86.0337 46.5947C86.7005 46.8871 87.2035 47.3258 87.5427 47.9106C87.8936 48.4838 88.0691 49.1857 88.0691 50.0162V50.2619C88.0691 51.0924 87.8936 51.8001 87.5427 52.385C87.1918 52.9582 86.6888 53.3968 86.0337 53.701C85.3786 53.9934 84.5773 54.1396 83.6298 54.1396H80.4188ZM93.9099 59V47.0684H95.2434V59H93.9099ZM89.9093 47.4018V46.1911H99.244V47.4018H89.9093ZM101.734 59V46.1911H103.962L110.981 57.7893H111.542L111.191 58.07V46.1911H112.472V59H110.226L103.208 47.4018H102.646L102.997 47.121V59H101.734ZM116.47 59V46.1911H117.803V59H116.47ZM117.488 59V57.7893H123.892V59H117.488ZM117.488 53.0868V51.8937H123.296V53.0868H117.488ZM117.488 47.4018V46.1911H123.699V47.4018H117.488ZM127.042 59V46.1384H128.376V59H127.042ZM134.991 59L130.622 53.3325H132.183L136.623 59H134.991ZM127.832 54.1396V52.9465H131.271C131.903 52.9465 132.429 52.8236 132.85 52.578C133.271 52.3323 133.587 51.999 133.798 51.5778C134.008 51.1567 134.114 50.6771 134.114 50.139C134.114 49.6009 134.008 49.1213 133.798 48.7002C133.587 48.2791 133.271 47.9457 132.85 47.7001C132.429 47.4427 131.903 47.3141 131.271 47.3141H127.832V46.1384H131.043C131.99 46.1384 132.792 46.2905 133.447 46.5947C134.114 46.8871 134.617 47.3258 134.956 47.9106C135.307 48.4838 135.482 49.1857 135.482 50.0162V50.2619C135.482 51.0924 135.307 51.8001 134.956 52.385C134.605 52.9582 134.102 53.3968 133.447 53.701C132.792 53.9934 131.99 54.1396 131.043 54.1396H127.832Z" fill="#64748B"/>
</svg>
