<svg width="28" height="29" viewBox="0 0 28 29" fill="none" xmlns="http://www.w3.org/2000/svg">
<path fill-rule="evenodd" clip-rule="evenodd" d="M14.0694 0.666748H13.9307C12.7321 0.666748 11.7334 0.666748 10.9414 0.773415C10.1041 0.885415 9.34808 1.13341 8.74141 1.74008C8.13341 2.34808 7.88541 3.10408 7.77341 3.94008C7.69741 4.50941 7.67475 5.86808 7.66941 7.03341C4.97341 7.12275 3.35341 7.43741 2.22941 8.56275C0.666748 10.1241 0.666748 12.6387 0.666748 17.6667C0.666748 22.6947 0.666748 25.2094 2.22941 26.7707C3.79075 28.3334 6.30541 28.3334 11.3334 28.3334H16.6667C21.6947 28.3334 24.2094 28.3334 25.7707 26.7707C27.3334 25.2094 27.3334 22.6947 27.3334 17.6667C27.3334 12.6387 27.3334 10.1241 25.7707 8.56275C24.6467 7.43741 23.0267 7.12275 20.3307 7.03475C20.3254 5.86808 20.3041 4.50941 20.2267 3.94141C20.1147 3.10408 19.8667 2.34808 19.2587 1.74141C18.6521 1.13341 17.8961 0.885415 17.0587 0.773415C16.2667 0.666748 15.2667 0.666748 14.0694 0.666748ZM18.3307 7.00275C18.3241 5.87341 18.3054 4.65875 18.2454 4.20675C18.1614 3.59208 18.0187 3.32808 17.8454 3.15475C17.6721 2.98141 17.4081 2.83875 16.7921 2.75475C16.1494 2.66941 15.2854 2.66675 14.0001 2.66675C12.7147 2.66675 11.8507 2.66941 11.2067 2.75608C10.5921 2.83875 10.3281 2.98141 10.1547 3.15608C9.98141 3.32941 9.83875 3.59208 9.75475 4.20675C9.69475 4.66008 9.67475 5.87341 9.66941 7.00275C10.1907 7.00008 10.7467 7.00008 11.3334 7.00008H16.6667C17.2547 7.00008 17.8094 7.00008 18.3307 7.00275ZM14.0001 11.3334C14.2653 11.3334 14.5197 11.4388 14.7072 11.6263C14.8947 11.8138 15.0001 12.0682 15.0001 12.3334V12.3467C16.4521 12.7121 17.6667 13.8574 17.6667 15.4441C17.6667 15.7093 17.5614 15.9637 17.3739 16.1512C17.1863 16.3387 16.932 16.4441 16.6667 16.4441C16.4015 16.4441 16.1472 16.3387 15.9596 16.1512C15.7721 15.9637 15.6667 15.7093 15.6667 15.4441C15.6667 14.9321 15.0987 14.2227 14.0001 14.2227C12.9014 14.2227 12.3334 14.9321 12.3334 15.4441C12.3334 15.9561 12.9014 16.6667 14.0001 16.6667C15.8467 16.6667 17.6667 17.9467 17.6667 19.8894C17.6667 21.4761 16.4521 22.6201 15.0001 22.9867V23.0001C15.0001 23.2653 14.8947 23.5197 14.7072 23.7072C14.5197 23.8947 14.2653 24.0001 14.0001 24.0001C13.7349 24.0001 13.4805 23.8947 13.293 23.7072C13.1054 23.5197 13.0001 23.2653 13.0001 23.0001V22.9867C11.5481 22.6214 10.3334 21.4761 10.3334 19.8894C10.3334 19.6242 10.4388 19.3698 10.6263 19.1823C10.8138 18.9948 11.0682 18.8894 11.3334 18.8894C11.5986 18.8894 11.853 18.9948 12.0405 19.1823C12.2281 19.3698 12.3334 19.6242 12.3334 19.8894C12.3334 20.4014 12.9014 21.1107 14.0001 21.1107C15.0987 21.1107 15.6667 20.4014 15.6667 19.8894C15.6667 19.3774 15.0987 18.6667 14.0001 18.6667C12.1534 18.6667 10.3334 17.3867 10.3334 15.4441C10.3334 13.8574 11.5481 12.7121 13.0001 12.3467V12.3334C13.0001 12.0682 13.1054 11.8138 13.293 11.6263C13.4805 11.4388 13.7349 11.3334 14.0001 11.3334Z" fill="#FF6600"/>
</svg>
