<svg width="32" height="32" viewBox="0 0 32 32" fill="none" xmlns="http://www.w3.org/2000/svg">
<path fill-rule="evenodd" clip-rule="evenodd" d="M16.0693 1.66675H15.9306C14.732 1.66675 13.7333 1.66675 12.9413 1.77341C12.104 1.88541 11.348 2.13341 10.7413 2.74008C10.1333 3.34808 9.88529 4.10408 9.77329 4.94008C9.69729 5.50941 9.67463 6.86808 9.66929 8.03341C6.97329 8.12275 5.35329 8.43741 4.22929 9.56275C2.66663 11.1241 2.66663 13.6387 2.66663 18.6667C2.66663 23.6947 2.66663 26.2094 4.22929 27.7707C5.79063 29.3334 8.30529 29.3334 13.3333 29.3334H18.6666C23.6946 29.3334 26.2093 29.3334 27.7706 27.7707C29.3333 26.2094 29.3333 23.6947 29.3333 18.6667C29.3333 13.6387 29.3333 11.1241 27.7706 9.56275C26.6466 8.43741 25.0266 8.12275 22.3306 8.03475C22.3253 6.86808 22.304 5.50941 22.2266 4.94141C22.1146 4.10408 21.8666 3.34808 21.2586 2.74141C20.652 2.13341 19.896 1.88541 19.0586 1.77341C18.2666 1.66675 17.2666 1.66675 16.0693 1.66675ZM20.3306 8.00275C20.324 6.87341 20.3053 5.65875 20.2453 5.20675C20.1613 4.59208 20.0186 4.32808 19.8453 4.15475C19.672 3.98141 19.408 3.83875 18.792 3.75475C18.1493 3.66941 17.2853 3.66675 16 3.66675C14.7146 3.66675 13.8506 3.66941 13.2066 3.75608C12.592 3.83875 12.328 3.98141 12.1546 4.15608C11.9813 4.32941 11.8386 4.59208 11.7546 5.20675C11.6946 5.66008 11.6746 6.87341 11.6693 8.00275C12.1906 8.00008 12.7466 8.00008 13.3333 8.00008H18.6666C19.2546 8.00008 19.8093 8.00008 20.3306 8.00275ZM16 12.3334C16.2652 12.3334 16.5195 12.4388 16.7071 12.6263C16.8946 12.8138 17 13.0682 17 13.3334V13.3467C18.452 13.7121 19.6666 14.8574 19.6666 16.4441C19.6666 16.7093 19.5613 16.9637 19.3737 17.1512C19.1862 17.3387 18.9318 17.4441 18.6666 17.4441C18.4014 17.4441 18.1471 17.3387 17.9595 17.1512C17.772 16.9637 17.6666 16.7093 17.6666 16.4441C17.6666 15.9321 17.0986 15.2227 16 15.2227C14.9013 15.2227 14.3333 15.9321 14.3333 16.4441C14.3333 16.9561 14.9013 17.6667 16 17.6667C17.8466 17.6667 19.6666 18.9467 19.6666 20.8894C19.6666 22.4761 18.452 23.6201 17 23.9867V24.0001C17 24.2653 16.8946 24.5197 16.7071 24.7072C16.5195 24.8947 16.2652 25.0001 16 25.0001C15.7347 25.0001 15.4804 24.8947 15.2929 24.7072C15.1053 24.5197 15 24.2653 15 24.0001V23.9867C13.548 23.6214 12.3333 22.4761 12.3333 20.8894C12.3333 20.6242 12.4386 20.3698 12.6262 20.1823C12.8137 19.9948 13.0681 19.8894 13.3333 19.8894C13.5985 19.8894 13.8529 19.9948 14.0404 20.1823C14.2279 20.3698 14.3333 20.6242 14.3333 20.8894C14.3333 21.4014 14.9013 22.1107 16 22.1107C17.0986 22.1107 17.6666 21.4014 17.6666 20.8894C17.6666 20.3774 17.0986 19.6667 16 19.6667C14.1533 19.6667 12.3333 18.3867 12.3333 16.4441C12.3333 14.8574 13.548 13.7121 15 13.3467V13.3334C15 13.0682 15.1053 12.8138 15.2929 12.6263C15.4804 12.4388 15.7347 12.3334 16 12.3334Z" fill="#AF52DE"/>
</svg>
