<svg width="22" height="22" viewBox="0 0 22 22" fill="none" xmlns="http://www.w3.org/2000/svg">
<path d="M11 13.75C12.5188 13.75 13.75 12.5188 13.75 11C13.75 9.48122 12.5188 8.25 11 8.25C9.48122 8.25 8.25 9.48122 8.25 11C8.25 12.5188 9.48122 13.75 11 13.75Z" stroke="#64748B" stroke-width="1.5"/>
<path d="M12.6179 1.97259C12.2815 1.83325 11.8543 1.83325 11 1.83325C10.1457 1.83325 9.71849 1.83325 9.38207 1.97259C9.15948 2.06472 8.95724 2.19982 8.7869 2.37017C8.61656 2.54051 8.48146 2.74275 8.38932 2.96534C8.30499 3.16975 8.27107 3.409 8.25824 3.75642C8.25252 4.00758 8.18307 4.25316 8.0564 4.47011C7.92972 4.68706 7.74999 4.86825 7.53407 4.99667C7.31489 5.11954 7.06808 5.18468 6.81681 5.18596C6.56554 5.18724 6.31807 5.12463 6.09765 5.004C5.78965 4.84084 5.5669 4.751 5.34599 4.72167C4.86411 4.6583 4.37679 4.78887 3.99115 5.08467C3.70332 5.30742 3.48882 5.67684 3.06165 6.41659C2.63449 7.15634 2.41999 7.52575 2.37324 7.88783C2.34173 8.12658 2.35758 8.3692 2.41986 8.60182C2.48215 8.83445 2.58965 9.05252 2.73624 9.24359C2.8719 9.41959 3.06165 9.56717 3.3559 9.75234C3.78949 10.0246 4.06815 10.4884 4.06815 10.9999C4.06815 11.5114 3.78949 11.9753 3.3559 12.2466C3.06165 12.4327 2.87099 12.5803 2.73624 12.7563C2.58965 12.9473 2.48215 13.1654 2.41986 13.398C2.35758 13.6306 2.34173 13.8733 2.37324 14.112C2.4209 14.4732 2.63449 14.8435 3.06074 15.5833C3.48882 16.323 3.7024 16.6924 3.99115 16.9152C4.18222 17.0618 4.40029 17.1693 4.63292 17.2315C4.86554 17.2938 5.10815 17.3097 5.3469 17.2782C5.5669 17.2488 5.78965 17.159 6.09765 16.9958C6.31807 16.8752 6.56554 16.8126 6.81681 16.8139C7.06808 16.8152 7.31489 16.8803 7.53407 17.0032C7.97682 17.2598 8.2399 17.7319 8.25824 18.2434C8.27107 18.5918 8.30407 18.8301 8.38932 19.0345C8.48146 19.2571 8.61656 19.4593 8.7869 19.6297C8.95724 19.8 9.15948 19.9351 9.38207 20.0273C9.71849 20.1666 10.1457 20.1666 11 20.1666C11.8543 20.1666 12.2815 20.1666 12.6179 20.0273C12.8405 19.9351 13.0427 19.8 13.2131 19.6297C13.3834 19.4593 13.5185 19.2571 13.6107 19.0345C13.695 18.8301 13.7289 18.5918 13.7417 18.2434C13.7601 17.7319 14.0232 17.2589 14.4659 17.0032C14.6851 16.8803 14.9319 16.8152 15.1832 16.8139C15.4344 16.8126 15.6819 16.8752 15.9023 16.9958C16.2103 17.159 16.4331 17.2488 16.6531 17.2782C16.8918 17.3097 17.1344 17.2938 17.3671 17.2315C17.5997 17.1693 17.8178 17.0618 18.0088 16.9152C18.2976 16.6933 18.5112 16.323 18.9383 15.5833C19.3655 14.8435 19.58 14.4741 19.6267 14.112C19.6582 13.8733 19.6424 13.6306 19.5801 13.398C19.5178 13.1654 19.4103 12.9473 19.2637 12.7563C19.1281 12.5803 18.9383 12.4327 18.6441 12.2475C18.4293 12.117 18.2513 11.934 18.1267 11.7158C18.0021 11.4975 17.935 11.2512 17.9318 10.9999C17.9318 10.4884 18.2105 10.0246 18.6441 9.75325C18.9383 9.56717 19.129 9.41959 19.2637 9.24359C19.4103 9.05252 19.5178 8.83445 19.5801 8.60182C19.6424 8.3692 19.6582 8.12658 19.6267 7.88783C19.5791 7.52667 19.3655 7.15634 18.9392 6.41659C18.5112 5.67684 18.2976 5.30742 18.0088 5.08467C17.8178 4.93809 17.5997 4.83058 17.3671 4.7683C17.1344 4.70601 16.8918 4.69017 16.6531 4.72167C16.4331 4.751 16.2103 4.84084 15.9014 5.004C15.6811 5.12447 15.4338 5.18699 15.1827 5.18571C14.9316 5.18442 14.685 5.11938 14.4659 4.99667C14.25 4.86825 14.0702 4.68706 13.9436 4.47011C13.8169 4.25316 13.7474 4.00758 13.7417 3.75642C13.7289 3.40809 13.6959 3.16975 13.6107 2.96534C13.5185 2.74275 13.3834 2.54051 13.2131 2.37017C13.0427 2.19982 12.8405 2.06472 12.6179 1.97259Z" stroke="#64748B" stroke-width="1.5"/>
</svg>
