<svg width="24" height="23" viewBox="0 0 24 23" fill="none" xmlns="http://www.w3.org/2000/svg">
<path d="M19.979 18.9853L14.3653 10.163L19.9046 4.06949C20.0299 3.92827 20.0944 3.74337 20.0843 3.55486C20.0741 3.36636 19.9901 3.18944 19.8504 3.06248C19.7107 2.93552 19.5266 2.86874 19.338 2.87662C19.1494 2.8845 18.9714 2.96641 18.8428 3.10458L13.5663 8.9084L9.93531 3.20233C9.87057 3.10041 9.78114 3.01649 9.67533 2.95833C9.56952 2.90018 9.45074 2.86967 9.33 2.86963H5.02556C4.89693 2.86957 4.77065 2.90409 4.65994 2.96958C4.54923 3.03507 4.45817 3.12913 4.39628 3.24189C4.3344 3.35466 4.30397 3.48199 4.30819 3.61055C4.31241 3.73911 4.35111 3.86417 4.42025 3.97264L10.034 12.7941L4.49468 18.892C4.42999 18.9615 4.37974 19.0431 4.34684 19.1322C4.31393 19.2212 4.29903 19.3159 4.30299 19.4108C4.30696 19.5056 4.32971 19.5988 4.36992 19.6848C4.41014 19.7708 4.46703 19.8479 4.53728 19.9118C4.60754 19.9756 4.68977 20.0249 4.77921 20.0567C4.86865 20.0885 4.96352 20.1023 5.05831 20.0972C5.15311 20.0921 5.24596 20.0682 5.33146 20.027C5.41697 19.9858 5.49344 19.9279 5.55644 19.8569L10.833 14.0531L14.4639 19.7592C14.5292 19.8603 14.6189 19.9433 14.7247 20.0007C14.8304 20.058 14.9489 20.0878 15.0693 20.0874H19.3737C19.5022 20.0874 19.6283 20.0528 19.7389 19.9874C19.8495 19.9219 19.9404 19.828 20.0023 19.7153C20.0641 19.6027 20.0946 19.4756 20.0905 19.3471C20.0864 19.2187 20.0479 19.0937 19.979 18.9853ZM15.4629 18.6526L6.33214 4.30444H8.93274L18.0671 18.6526H15.4629Z" fill="black"/>
</svg>
