<svg width="32" height="32" viewBox="0 0 32 32" fill="none" xmlns="http://www.w3.org/2000/svg">
<g clip-path="url(#clip0_3494_19477)">
<path fill-rule="evenodd" clip-rule="evenodd" d="M14.6666 2.66675C12.8985 2.66675 11.2028 3.36913 9.95258 4.61937C8.70234 5.86961 7.99996 7.5653 7.99996 9.33341C7.99996 11.1015 8.70234 12.7972 9.95258 14.0475C11.2028 15.2977 12.8985 16.0001 14.6666 16.0001C16.4347 16.0001 18.1304 15.2977 19.3807 14.0475C20.6309 12.7972 21.3333 11.1015 21.3333 9.33341C21.3333 7.5653 20.6309 5.86961 19.3807 4.61937C18.1304 3.36913 16.4347 2.66675 14.6666 2.66675ZM14.6666 17.3334C11.4733 17.3334 8.56663 18.2587 6.42929 19.5627C5.36263 20.2134 4.45063 20.9814 3.79196 21.8161C3.14396 22.6347 2.66663 23.6174 2.66663 24.6667C2.66663 25.7934 3.21463 26.6814 4.00396 27.3147C4.75063 27.9147 5.73596 28.3121 6.78263 28.5894C8.88663 29.1454 11.6946 29.3334 14.6666 29.3334C14.9742 29.3334 15.2786 29.3312 15.58 29.3267C15.8033 29.3237 16.0222 29.2646 16.2167 29.1549C16.4112 29.0451 16.5751 28.8883 16.6932 28.6988C16.8113 28.5093 16.88 28.2931 16.8928 28.0701C16.9056 27.8472 16.8622 27.6246 16.7666 27.4227C16.261 26.3526 15.9992 25.1836 16 24.0001C16 22.3307 16.5106 20.7841 17.3826 19.5027C17.5122 19.3123 17.5903 19.0916 17.6092 18.862C17.6282 18.6325 17.5873 18.4019 17.4906 18.1928C17.3939 17.9838 17.2447 17.8033 17.0576 17.6691C16.8704 17.5348 16.6517 17.4513 16.4226 17.4267C15.8484 17.3645 15.2631 17.3334 14.6666 17.3334ZM28.944 21.4241C29.1868 21.1726 29.3212 20.8358 29.3182 20.4862C29.3152 20.1366 29.1749 19.8022 28.9277 19.555C28.6805 19.3078 28.3461 19.1676 27.9965 19.1645C27.6469 19.1615 27.3101 19.2959 27.0586 19.5387L22.816 23.7814L20.9306 21.8961C20.6792 21.6532 20.3424 21.5188 19.9928 21.5218C19.6432 21.5249 19.3087 21.6651 19.0615 21.9123C18.8143 22.1595 18.6741 22.4939 18.6711 22.8435C18.668 23.1931 18.8024 23.5299 19.0453 23.7814L21.7786 26.5147C21.9148 26.651 22.0765 26.7591 22.2545 26.8329C22.4325 26.9066 22.6233 26.9446 22.816 26.9446C23.0086 26.9446 23.1994 26.9066 23.3774 26.8329C23.5554 26.7591 23.7171 26.651 23.8533 26.5147L28.944 21.4241Z" fill="#34C759"/>
</g>
<defs>
<clipPath id="clip0_3494_19477">
<rect width="32" height="32" fill="white"/>
</clipPath>
</defs>
</svg>
