<svg width="32" height="32" viewBox="0 0 32 32" fill="none" xmlns="http://www.w3.org/2000/svg">
<path d="M16 14.4C17.2731 14.4 18.494 13.8943 19.3941 12.9942C20.2943 12.094 20.8 10.8731 20.8 9.60005C20.8 8.32701 20.2943 7.10611 19.3941 6.20594C18.494 5.30576 17.2731 4.80005 16 4.80005C14.727 4.80005 13.5061 5.30576 12.6059 6.20594C11.7057 7.10611 11.2 8.32701 11.2 9.60005C11.2 10.8731 11.7057 12.094 12.6059 12.9942C13.5061 13.8943 14.727 14.4 16 14.4ZM9.60002 12.8C9.60002 13.6487 9.26288 14.4627 8.66276 15.0628C8.06265 15.6629 7.24871 16 6.40002 16C5.55133 16 4.7374 15.6629 4.13728 15.0628C3.53716 14.4627 3.20002 13.6487 3.20002 12.8C3.20002 11.9514 3.53716 11.1374 4.13728 10.5373C4.7374 9.93719 5.55133 9.60005 6.40002 9.60005C7.24871 9.60005 8.06265 9.93719 8.66276 10.5373C9.26288 11.1374 9.60002 11.9514 9.60002 12.8ZM2.38402 24.5216C2.11088 24.3664 1.90633 24.1139 1.81122 23.8144C1.52931 22.9014 1.52635 21.9249 1.80273 21.0102C2.07911 20.0954 2.62224 19.284 3.36257 18.6797C4.1029 18.0755 5.00673 17.706 5.95833 17.6186C6.90992 17.5311 7.86596 17.7297 8.70402 18.1888C6.98139 19.881 5.90339 22.1213 5.65602 24.5232C5.61975 24.8806 5.63309 25.2294 5.69602 25.5696C4.52859 25.4671 3.39793 25.1094 2.38402 24.5216ZM26.304 25.568C27.4713 25.466 28.602 25.1088 29.616 24.5216C29.8886 24.3661 30.0925 24.1136 30.1872 23.8144C30.4696 22.9013 30.4729 21.9246 30.1967 21.0095C29.9205 20.0945 29.3774 19.2827 28.637 18.6782C27.8966 18.0737 26.9925 17.7041 26.0407 17.6166C25.0889 17.5292 24.1326 17.7278 23.2944 18.1872C25.0186 19.8793 26.0977 22.1203 26.3456 24.5232C26.3817 24.8722 26.3677 25.2246 26.304 25.5696M28.8 12.8C28.8 13.6487 28.4629 14.4627 27.8628 15.0628C27.2626 15.6629 26.4487 16 25.6 16C24.7513 16 23.9374 15.6629 23.3373 15.0628C22.7372 14.4627 22.4 13.6487 22.4 12.8C22.4 11.9514 22.7372 11.1374 23.3373 10.5373C23.9374 9.93719 24.7513 9.60005 25.6 9.60005C26.4487 9.60005 27.2626 9.93719 27.8628 10.5373C28.4629 11.1374 28.8 11.9514 28.8 12.8ZM8.48642 25.904C8.32822 25.763 8.2056 25.5866 8.12857 25.3892C8.05155 25.1918 8.0223 24.9789 8.04322 24.768C8.24673 22.7992 9.17289 20.9757 10.6427 19.65C12.1125 18.3244 14.0215 17.5906 16.0008 17.5906C17.9801 17.5906 19.8892 18.3244 21.359 19.65C22.8288 20.9757 23.7549 22.7992 23.9584 24.768C23.9793 24.9789 23.9501 25.1918 23.8731 25.3892C23.796 25.5866 23.6734 25.763 23.5152 25.904C21.4575 27.7705 18.7781 28.803 16 28.8C13.2222 28.8042 10.5429 27.7715 8.48642 25.904Z" fill="#FF6600"/>
</svg>
