<svg width="24" height="23" viewBox="0 0 24 23" fill="none" xmlns="http://www.w3.org/2000/svg">
<g clip-path="url(#clip0_3522_17928)">
<path d="M-0.708262 11.3089C-0.711019 13.6065 -0.107983 15.8642 1.04005 17.8544L-0.817993 24.6386L6.1249 22.8182C8.04529 23.8633 10.1967 24.411 12.3831 24.4115H12.3888C19.6064 24.4115 25.482 18.5382 25.485 11.3192C25.4864 7.82101 24.1253 4.53183 21.6525 2.05698C19.1802 -0.417641 15.8919 -1.78108 12.3884 -1.78247C5.16966 -1.78247 -0.705258 4.09013 -0.708262 11.3089Z" fill="url(#paint0_linear_3522_17928)"/>
<path d="M-1.17578 11.3044C-1.17861 13.6843 -0.553981 16.0229 0.635134 18.0844L-1.28967 25.1118L5.90202 23.2261C7.8912 24.3092 10.12 24.8768 12.385 24.8771H12.3907C19.8673 24.8771 25.9536 18.7925 25.957 11.3152C25.9582 7.69131 24.5481 4.28386 21.9871 1.7203C19.4256 -0.8428 16.0197 -2.25545 12.3907 -2.25684C4.91282 -2.25684 -1.17278 3.82668 -1.17578 11.3044ZM3.10721 17.7302L2.83854 17.304C1.70928 15.5071 1.11164 13.4273 1.11472 11.3051C1.11703 5.0901 6.17531 0.0338974 12.3951 0.0338974C15.4069 0.0350523 18.2375 1.20906 20.3667 3.33947C22.4957 5.47011 23.6672 8.30211 23.6663 11.3143C23.6635 17.5295 18.6055 22.5866 12.3905 22.5866H12.3863C10.367 22.5868 8.38471 22.044 6.64704 21.0153L6.23514 20.7709L1.96762 21.8899L3.10721 17.7302Z" fill="url(#paint1_linear_3522_17928)"/>
<path d="M8.99995 5.63475C8.74583 5.07038 8.47878 5.05906 8.23737 5.04913C8.03962 5.04058 7.81346 5.04127 7.58776 5.04127C7.36137 5.04127 6.99428 5.12629 6.6838 5.46542C6.37309 5.80454 5.49731 6.62441 5.49731 8.29233C5.49731 9.96025 6.71199 11.5716 6.88132 11.798C7.05088 12.0239 9.22634 15.5559 12.6717 16.9145C15.5353 18.0437 16.1179 17.8191 16.7394 17.7625C17.3608 17.7061 18.745 16.9429 19.0273 16.1512C19.3099 15.3597 19.3099 14.6813 19.2251 14.5396C19.1405 14.3985 18.9144 14.3135 18.5755 14.1441C18.2363 13.9746 16.5698 13.1545 16.2593 13.0413C15.9484 12.9283 15.7225 12.8719 15.4963 13.2113C15.2704 13.5502 14.6212 14.3135 14.4235 14.5396C14.2257 14.7658 14.0277 14.7944 13.6888 14.6251C13.3497 14.4549 12.2579 14.0972 10.9629 12.9426C9.95519 12.044 9.27485 10.9347 9.07711 10.5953C8.87936 10.2559 9.05608 10.0728 9.22588 9.90365C9.37835 9.75188 9.56501 9.50793 9.73457 9.30995C9.90367 9.11197 9.96027 8.97082 10.0732 8.74466C10.1864 8.51826 10.1296 8.32052 10.0451 8.15095C9.96027 7.98139 9.30142 6.30515 8.99995 5.63475Z" fill="white"/>
</g>
<defs>
<linearGradient id="paint0_linear_3522_17928" x1="1314.33" y1="2640.32" x2="1314.33" y2="-1.78247" gradientUnits="userSpaceOnUse">
<stop stop-color="#1FAF38"/>
<stop offset="1" stop-color="#60D669"/>
</linearGradient>
<linearGradient id="paint1_linear_3522_17928" x1="1361.05" y1="2734.61" x2="1361.05" y2="-2.25684" gradientUnits="userSpaceOnUse">
<stop stop-color="#F9F9F9"/>
<stop offset="1" stop-color="white"/>
</linearGradient>
<clipPath id="clip0_3522_17928">
<rect width="22.7641" height="22.957" fill="white" transform="translate(0.957031)"/>
</clipPath>
</defs>
</svg>
