<svg width="32" height="32" viewBox="0 0 32 32" fill="none" xmlns="http://www.w3.org/2000/svg">
<path fill-rule="evenodd" clip-rule="evenodd" d="M0.626945 4.9842C0.0205078 6.44827 0.0205078 8.3043 0.0205078 12.0164V19.9832C0.0205078 23.6952 0.0205078 25.5513 0.626945 27.0153C1.43553 28.9674 2.98646 30.5184 4.93855 31.3269C6.40262 31.9334 8.25865 31.9334 11.9707 31.9334H19.9375C23.6496 31.9334 25.5056 31.9334 26.9697 31.3269C28.9218 30.5184 30.4727 28.9674 31.2813 27.0153C31.8877 25.5513 31.8877 23.6952 31.8877 19.9832V12.0164C31.8877 8.30431 31.8877 6.44827 31.2813 4.9842C30.4727 3.03211 28.9218 1.48118 26.9697 0.672599C25.5056 0.0661621 23.6496 0.0661621 19.9375 0.0661621H11.9707C8.25865 0.0661621 6.40262 0.0661621 4.93855 0.672599C2.98646 1.48118 1.43553 3.03211 0.626945 4.9842ZM20.5204 9.36608C20.6719 9.35449 20.8237 9.38556 20.9585 9.45577L23.0365 10.5365C23.1936 10.6155 23.3208 10.7435 23.3989 10.9011C23.4468 10.9968 23.4754 11.1011 23.4829 11.2078C23.4904 11.3146 23.4767 11.4218 23.4426 11.5233C23.4085 11.6247 23.3547 11.7184 23.2843 11.799C23.2138 11.8796 23.1281 11.9454 23.0321 11.9928C21.6193 12.6975 20.0737 13.0961 18.4963 13.1625C17.2543 13.1625 16.3208 12.6765 15.5585 12.2796L15.5557 12.2782L15.5123 12.2565C14.7245 11.8463 14.1081 11.5392 13.2976 11.5348C11.9657 11.5996 10.6618 11.9399 9.46819 12.5342C9.3724 12.5828 9.26795 12.6119 9.16086 12.6199C9.05376 12.6279 8.94615 12.6146 8.84422 12.5808C8.74228 12.547 8.64804 12.4934 8.56693 12.423C8.48582 12.3526 8.41943 12.2669 8.37161 12.1707C8.32378 12.0746 8.29546 11.9699 8.28827 11.8628C8.28109 11.7556 8.29517 11.6481 8.32973 11.5464C8.36428 11.4448 8.41862 11.3509 8.4896 11.2704C8.56059 11.1898 8.64682 11.124 8.74333 11.0769C10.1566 10.3736 11.7019 9.97512 13.2791 9.90718C14.5226 9.90718 15.4569 10.3933 16.2198 10.7905L16.2632 10.8122C17.051 11.2223 17.6673 11.5294 18.4779 11.5338C18.9772 11.5099 19.4739 11.4472 19.9634 11.346L19.7811 10.3195C19.7546 10.1699 19.7705 10.0158 19.8271 9.87473C19.8836 9.73367 19.9785 9.61126 20.1011 9.52136C20.2236 9.43146 20.3689 9.37767 20.5204 9.36608ZM13.2791 14.7902C13.2668 14.7903 13.2545 14.7906 13.2422 14.7913C11.6777 14.864 10.1455 15.262 8.74333 15.9599C8.64757 16.0075 8.56211 16.0734 8.49183 16.1539C8.42154 16.2345 8.36781 16.3281 8.3337 16.4294C8.2996 16.5307 8.28578 16.6378 8.29304 16.7444C8.3003 16.8511 8.3285 16.9553 8.37602 17.051C8.42354 17.1468 8.48946 17.2323 8.57001 17.3025C8.65056 17.3728 8.74417 17.4265 8.84549 17.4607C8.9468 17.4948 9.05385 17.5086 9.1605 17.5013C9.26716 17.4941 9.37134 17.4659 9.4671 17.4183C10.661 16.8235 11.9653 16.4828 13.2976 16.4179C14.1081 16.4222 14.7245 16.7304 15.5123 17.1406L15.5557 17.1623C16.3185 17.5594 17.2528 18.0455 18.4963 18.0455C19.4063 18.0068 20.3081 17.8574 21.182 17.6006C21.8187 17.4134 22.4377 17.1709 23.0321 16.8758C23.2132 16.7858 23.354 16.6314 23.4271 16.4428C23.5018 16.2543 23.5031 16.0447 23.4308 15.8552C23.3584 15.6658 23.2178 15.5104 23.0365 15.4196L20.9585 14.3388C20.8217 14.2676 20.6675 14.2368 20.5139 14.2499C20.3603 14.2629 20.2135 14.3194 20.0908 14.4126C19.968 14.5058 19.8742 14.632 19.8203 14.7765C19.7665 14.9209 19.7548 15.0777 19.7865 15.2286L19.9949 16.2225C19.4952 16.3278 18.9879 16.3931 18.4779 16.4179C17.6673 16.4135 17.051 16.1054 16.2632 15.6952L16.2198 15.6735C15.4569 15.2763 14.5226 14.7902 13.2791 14.7902ZM13.2791 19.6743H13.2422C11.6776 19.7473 10.1454 20.1457 8.74333 20.844C8.64485 20.8899 8.55653 20.9549 8.48359 21.0354C8.41065 21.1159 8.35456 21.2102 8.31863 21.3127C8.28269 21.4152 8.26764 21.5239 8.27436 21.6323C8.28108 21.7407 8.30943 21.8467 8.35774 21.9439C8.40606 22.0412 8.47336 22.1278 8.55568 22.1987C8.638 22.2696 8.73367 22.3232 8.83706 22.3566C8.94045 22.3899 9.04946 22.4021 9.15766 22.3927C9.26587 22.3832 9.37108 22.3521 9.4671 22.3014C10.6611 21.7069 11.9654 21.3666 13.2976 21.302C14.1081 21.3063 14.7245 21.6134 15.5123 22.0236L15.5557 22.0453L15.5585 22.0467C16.3208 22.4436 17.2543 22.9296 18.4963 22.9296C20.0735 22.8614 21.6187 22.4629 23.0321 21.7599C23.2134 21.6696 23.3543 21.5148 23.4271 21.3258C23.5015 21.1375 23.5026 20.9281 23.4303 20.7389C23.358 20.5497 23.2175 20.3944 23.0365 20.3037L20.9585 19.2229C20.8215 19.1517 20.667 19.121 20.5132 19.1343C20.3594 19.1476 20.2125 19.2044 20.0898 19.298C19.967 19.3917 19.8734 19.5183 19.8199 19.6631C19.7664 19.8079 19.7552 19.965 19.7876 20.1159L19.9992 21.1056C19.4981 21.2112 18.9894 21.2765 18.4779 21.3009C17.6673 21.2965 17.051 20.9895 16.2632 20.5793L16.2198 20.5576C15.4569 20.1604 14.5226 19.6743 13.2791 19.6743Z" fill="#FF6600"/>
</svg>
